<svg xmlns="http://www.w3.org/2000/svg" width="128" height="128" viewBox="0 0 128 128"><path fill="#49351f" d="M64 35c0-17 9-25 19-29 3 14-4 26-19 29Z"/><path fill="#36a852" d="M68 27C82 13 99 18 104 29 87 36 76 34 68 27Z"/><path fill="#e43e36" d="M64 33c34-15 57 8 54 38-3 31-28 50-54 50S13 102 10 71c-3-30 20-53 54-38Z"/><ellipse cx="44" cy="51" rx="13" ry="8" fill="#ff8574" transform="rotate(-28 44 51)"/><path fill="#b6202d" d="M64 34c10 0 17 4 22 9-10-3-18-1-22 3-4-4-12-6-22-3 5-5 12-9 22-9Z"/></svg>